Coordinates
version=1
nRows=19
nColumns=24
inDegrees=yes

Units are S.I. units (second, meters, Newtons, ...)
Angles are in degrees.

endheader
time	pelvis_tilt	pelvis_list	pelvis_rotation	pelvis_tx	pelvis_ty	pelvis_tz	hip_flexion_r	hip_adduction_r	hip_rotation_r	knee_angle_r	ankle_angle_r	subtalar_angle_r	mtp_angle_r	hip_flexion_l	hip_adduction_l	hip_rotation_l	knee_angle_l	ankle_angle_l	subtalar_angle_l	mtp_angle_l	lumbar_extension	lumbar_bending	lumbar_rotation
      0.46300000	     -0.27707924	      0.50045991	      4.05954634	     -0.75733873	      0.88860067	      0.31718618	     31.05548906	      0.83569618	     -4.31486526	    -21.08058397	      2.82443801	     -0.85132326	      0.72724135	    -16.73940088	      1.71269608	      0.43934255	     -6.35227809	     20.42162859	      0.56900289	      1.10935907	    -10.03146288	     -1.22890989	     -9.31670889
      0.46716667	     -0.41115105	      0.54878529	      4.12114852	     -0.75168777	      0.88714671	      0.31745312	     31.20819612	      0.87318139	     -3.98155753	    -21.22746847	      2.86001219	     -1.14489718	      3.08741645	    -16.56170620	      1.68851968	      0.29870642	     -7.25527776	     20.79109553	      0.96359774	      3.93862717	     -9.85022659	     -1.25457469	     -9.31249782
      0.47133333	     -0.47494570	      0.56688035	      4.15787221	     -0.74598766	      0.88585312	      0.31778217	     31.26086997	      0.97600346	     -3.58939307	    -21.41296118	      2.83792025	     -1.60514333	      3.08338541	    -16.53870168	      1.64930753	      0.41601147	     -8.00424358	     21.04818841	      0.95608398	      4.00422847	     -9.77338126	     -1.23551561	     -9.14794962
      0.47550000	     -0.54946825	      0.55168036	      4.20089077	     -0.74022902	      0.88459355	      0.31814269	     31.31142762	      1.10977796	     -3.25523194	    -21.65147476	      2.76816960	     -2.03587190	      3.08204417	    -16.38691191	      1.54732959	      0.20601074	     -8.99645740	     21.37156682	      1.38300445	      4.22231563	     -9.65304864	     -1.17488947	     -9.04728985
      0.47966667	     -0.65658492	      0.56108330	      4.26502104	     -0.73447863	      0.88334683	      0.31847473	     31.40449493	      1.20387862	     -2.95524513	    -21.98538029	      2.69453484	     -2.40849204	      3.08545361	    -16.21741664	      1.48470206	      0.25697645	     -9.94903437	     21.58042330	      1.48431862	      4.35926922	     -9.49950814	     -1.15530224	     -8.96555071
      0.48383333	     -0.75350396	      0.54992960	      4.31382456	     -0.72868169	      0.88215021	      0.31885698	     31.49218077	      1.33201262	     -2.66958668	    -22.39970037	      2.58699687	     -2.82171229	      3.09517402	    -16.01262367	      1.39354119	      0.19292863	    -11.00105635	     21.79904609	      1.71547560	      4.54379761	     -9.35254977	     -1.10405995	     -8.87037554
      0.48800000	     -0.79612722	      0.50084423	      4.33948497	     -0.72282295	      0.88106687	      0.31931451	     31.50974508	      1.52130325	     -2.38045420	    -22.85061499	      2.49726138	     -3.22032790	      3.13107364	    -15.83082556	      1.24514984	     -0.01501177	    -12.13171031	     22.04937055	      2.15120976	      4.98948027	     -9.27719130	     -1.00606734	     -8.76457439
      0.49216667	     -0.87885117	      0.47007272	      4.37082920	     -0.71696498	      0.87998952	      0.31977154	     31.58008725	      1.68789270	     -2.11003649	    -23.37288116	      2.36323419	     -3.65527829	      3.18828541	    -15.58703162	      1.12728832	     -0.10855631	    -13.29905134	     22.16703618	      2.38527046	      5.62842422	     -9.13848905	     -0.93585908	     -8.63501141
      0.49633333	     -0.97204508	      0.44521049	      4.41811103	     -0.71108961	      0.87897126	      0.32017549	     31.67846789	      1.82755616	     -1.91993131	    -23.98293229	      2.24147948	     -4.00772163	      3.19957989	    -15.35005108	      1.03952944	      0.03406587	    -14.41867548	     22.18733999	      2.26995485	      5.78040630	     -8.99369618	     -0.85533870	     -8.51706490
      0.50050000	     -0.95501105	      0.27286292	      4.36735148	     -0.70500990	      0.87796158	      0.32072826	     31.64202198	      2.18250012	     -1.69401170	    -24.57934812	      2.05193998	     -4.52192006	      3.22330934	    -15.48415568	      0.80648029	     -0.09859758	    -15.11721671	     22.09105969	      2.30916711	      6.06128870	     -8.91601977	     -0.60253528	     -8.26209754
      0.50466667	     -0.98477937	      0.19316919	      4.37093108	     -0.69905397	      0.87712576	      0.32127294	     31.66667333	      2.41334196	     -1.50521824	    -25.24620471	      1.96164768	     -4.87576574	      3.33546219	    -15.19519099	      0.61635190	     -0.32201602	    -16.48941494	     22.10861773	      2.68523479	      7.26946775	     -8.84125102	     -0.45676784	     -8.09775412
      0.50883333	     -1.09120712	      0.17104870	      4.39488032	     -0.69312649	      0.87630330	      0.32176110	     31.77825057	      2.56883147	     -1.31224907	    -25.95643832	      1.90322392	     -5.22216989	      3.34904012	    -14.84649533	      0.54063473	     -0.16712935	    -17.79819645	     21.86407843	      2.46170882	      7.46111318	     -8.66689860	     -0.39686772	     -7.95934500
      0.51300000	     -1.16817865	      0.13066306	      4.39395441	     -0.68718152	      0.87555947	      0.32229428	     31.87109560	      2.75348926	     -1.13900816	    -26.71270935	      1.87529661	     -5.55282862	      3.36443199	    -14.47964088	      0.43560532	     -0.14043912	    -19.20395632	     21.61255173	      2.39187692	      7.69353268	     -8.52600941	     -0.30490474	     -7.78571812
      0.51716667	     -1.18668755	      0.04090999	      4.37937920	     -0.68119408	      0.87497440	      0.32289474	     31.87520410	      3.00456246	     -0.97055079	    -27.42798267	      1.79550322	     -5.96340753	      3.65647476	    -14.12330923	      0.24447446	     -0.29788608	    -20.69306273	     21.22145512	      2.43597813	     13.85150912	     -8.44809713	     -0.16217749	     -7.65305945
      0.52133333	     -1.24435760	     -0.01961016	      4.36983847	     -0.67523060	      0.87438883	      0.32343063	     31.94908508	      3.20139841	     -0.85519824	    -28.22872536	      1.91798755	     -6.15873255	      3.65719672	    -13.70407058	      0.12030832	     -0.28350648	    -22.22461808	     20.82935938	      2.32565182	     13.89795082	     -8.32791653	     -0.03194349	     -7.42182692
      0.52550000	     -1.28376897	     -0.09464447	      4.34851678	     -0.66926733	      0.87389025	      0.32400701	     31.99626136	      3.42072636	     -0.73696563	    -29.02345709	      2.04392602	     -6.38812695	      3.65534282	    -13.26099625	     -0.02823206	     -0.33113420	    -23.83214773	     20.36209568	      2.25077807	     13.99143986	     -8.22667914	      0.10183919	     -7.21024636
      0.52966667	     -1.29747712	     -0.19032053	      4.32540491	     -0.66329970	      0.87350568	      0.32457618	     31.99990246	      3.65824450	     -0.64161733	    -29.79751094	      2.23192874	     -6.58858323	      3.65307212	    -12.80941086	     -0.20314094	     -0.40400066	    -25.49225580	     19.80883034	      2.16436710	     14.11166726	     -8.15375773	      0.27551722	     -7.01367914
      0.53383333	     -1.32316093	     -0.28470496	      4.29462833	     -0.65737523	      0.87314140	      0.32517461	     32.01907213	      3.89115931	     -0.56184447	    -30.57632555	      2.40855522	     -6.75967958	      3.63901506	    -12.28545652	     -0.38725817	     -0.53605842	    -27.25748994	     19.25533673	      2.13474575	     14.36823071	     -8.07350296	      0.40509169	     -6.76113605
      0.53800000	     -1.31889256	     -0.41212764	      4.26284955	     -0.65143569	      0.87289235	      0.32576130	     31.97966607	      4.15410869	     -0.50497720	    -31.31181659	      2.68522708	     -6.89172963	      3.61874440	    -11.76748262	     -0.61094167	     -0.67903287	    -29.05544115	     18.57530476	      2.05381438	     14.69590970	     -8.01989751	      0.60568037	     -6.53274422
